/* XPM */
static char * smtptester_xpm[] = {
"16 16 147 2",
"  	c None",
". 	c #7C9AC8",
"+ 	c #84A4D5",
"@ 	c #7097D0",
"# 	c #648FCC",
"$ 	c #628ECC",
"% 	c #608ECB",
"& 	c #5D8CCA",
"* 	c #5B8BC9",
"= 	c #588AC8",
"- 	c #5688C7",
"; 	c #5386C6",
"> 	c #5084C5",
", 	c #4D82C4",
"' 	c #4D83C1",
") 	c #4879B2",
"! 	c #2B518E",
"~ 	c #91ABD7",
"{ 	c #F8FAFD",
"] 	c #F1F5FC",
"^ 	c #F9FCFF",
"/ 	c #FAFCFF",
"( 	c #FBFCFF",
"_ 	c #FBFDFF",
": 	c #FCFDFF",
"< 	c #F3F6FB",
"[ 	c #EAEFF8",
"} 	c #4377AB",
"| 	c #7B9DD3",
"1 	c #F2F6FB",
"2 	c #96B4E3",
"3 	c #DCE8F9",
"4 	c #EEF5FE",
"5 	c #DAE9FD",
"6 	c #DCEAFD",
"7 	c #DEECFD",
"8 	c #E1EDFD",
"9 	c #E4EFFE",
"0 	c #E7F1FE",
"a 	c #F6FAFF",
"b 	c #E0EAF9",
"c 	c #85AAE2",
"d 	c #D9E4F1",
"e 	c #508CC8",
"f 	c #7096D0",
"g 	c #F9FBFD",
"h 	c #B1CDF1",
"i 	c #96B5E3",
"j 	c #DEE9F9",
"k 	c #F1F7FE",
"l 	c #EAF3FE",
"m 	c #F7FAFF",
"n 	c #E3ECF9",
"o 	c #8AAEE2",
"p 	c #95BCF0",
"q 	c #ECF4F8",
"r 	c #668ECC",
"s 	c #D3E5FD",
"t 	c #B2CCF1",
"u 	c #F5F9FF",
"v 	c #EDF4FE",
"w 	c #F9FBFF",
"x 	c #E5EDF9",
"y 	c #8DB0E3",
"z 	c #9EC1F0",
"A 	c #B7D7FC",
"B 	c #EDF3F8",
"C 	c #5B86C9",
"D 	c #D7E8FD",
"E 	c #D4E6FD",
"F 	c #ABC6ED",
"G 	c #89AADC",
"H 	c #E6EEF9",
"I 	c #87A8DC",
"J 	c #9CBFED",
"K 	c #C0DBFC",
"L 	c #507DC5",
"M 	c #D8E9FD",
"N 	c #D0E1F9",
"O 	c #B3CAEB",
"P 	c #A7C5EC",
"Q 	c #98B6E3",
"R 	c #DDE7F7",
"S 	c #DEE8F7",
"T 	c #97B6E3",
"U 	c #A4C3EC",
"V 	c #A9C5EA",
"W 	c #C2DAF8",
"X 	c #C6DFFC",
"Y 	c #508DC8",
"Z 	c #4676C2",
"` 	c #F8FBFD",
" .	c #D2E3F9",
"..	c #B9CFEC",
"+.	c #D0E1F8",
"@.	c #D6E7FD",
"#.	c #BDD5F4",
"$.	c #A0BFE9",
"%.	c #A2BFE9",
"&.	c #BDD3F4",
"*.	c #C9DEF7",
"=.	c #B0CAEB",
"-.	c #C4DBF8",
";.	c #ECF2F8",
">.	c #508CC9",
",.	c #3C6FBE",
"'.	c #F5F9FC",
").	c #BCD0EC",
"!.	c #D6E4F9",
"~.	c #DFECFE",
"{.	c #DFEBFE",
"].	c #DEEBFE",
"^.	c #DBEBFE",
"/.	c #DCEBFE",
"(.	c #DDEAFE",
"_.	c #DBEAFD",
":.	c #D8E8FD",
"<.	c #CDE0F8",
"[.	c #B3CBEA",
"}.	c #E3EBF3",
"|.	c #508BC7",
"1.	c #315DA3",
"2.	c #EEF3F8",
"3.	c #E4ECF5",
"4.	c #F0F5FB",
"5.	c #F1F7FB",
"6.	c #F3F7FB",
"7.	c #F4F8FB",
"8.	c #F6F9FC",
"9.	c #F7F9FC",
"0.	c #F7FAFC",
"a.	c #ECF1F7",
"b.	c #CCD9EA",
"c.	c #4276AB",
"d.	c #3163B0",
"e.	c #3870BB",
"f.	c #3C77BE",
"g.	c #407BC1",
"h.	c #427EC2",
"i.	c #4580C2",
"j.	c #4782C3",
"k.	c #4986C3",
"l.	c #4A86C3",
"m.	c #4B87C3",
"n.	c #4C87C3",
"o.	c #4983BD",
"p.	c #4074AC",
"                                ",
"                                ",
". + @ # $ % & * = - ; > , ' ) ! ",
"~ { ] ^ ^ ^ ^ / / / ( _ : < [ } ",
"| 1 2 3 4 5 6 7 8 9 0 a b c d e ",
"f g h i j k 8 9 0 l m n o p q e ",
"r g s t i b u l v w x y z A B e ",
"C g D E F G n w / H I J K K B e ",
"L g M N O P Q R S T U V W X B Y ",
"Z `  ...+.@.#.$.%.&.E *.=.-.;.>.",
",.'.).!.~.{.].^./.(._.:.<.[.}.|.",
"1.2.3.4.5.6.7.'.'.8.9.0.0.a.b.c.",
"! d.e.f.g.h.i.j.k.l.m.m.n.o.p.! ",
"                                ",
"                                ",
"                                "};
